<mxfile host="app.diagrams.net" modified="2025-10-09T19:19:32.945279Z" agent="python" version="22.0.0"><diagram id="1760037572945298" name="Use Case — Login &amp; Registration"><mxGraphModel dx="1200" dy="800" grid="1" gridSize="10" guides="1" tooltips="1" connect="1" arrows="1" fold="1" page="1" pageScale="1" pageWidth="2200" pageHeight="1400" math="0" shadow="0"><root><mxCell id="0" /><mxCell id="1" parent="0" /><mxCell id="sys1" value="AI Study Buddy" style="swimlane;rounded=1;horizontal=0;align=center;verticalAlign=top;startSize=28;collapsible=0;" vertex="1" parent="1"><mxGeometry x="360" y="80" width="1400" height="1000" as="geometry" /></mxCell><mxCell id="a_student1" value="Student" style="shape=umlActor;verticalLabelPosition=bottom;verticalAlign=top;" vertex="1" parent="1"><mxGeometry x="160" y="220" width="60" height="120" as="geometry" /></mxCell><mxCell id="a_email1" value="Email Service" style="shape=umlActor;verticalLabelPosition=bottom;verticalAlign=top;" vertex="1" parent="1"><mxGeometry x="160" y="560" width="60" height="120" as="geometry" /></mxCell><mxCell id="a_sso1" value="SSO Provider" style="shape=umlActor;verticalLabelPosition=bottom;verticalAlign=top;" vertex="1" parent="1"><mxGeometry x="160" y="720" width="60" height="120" as="geometry" /></mxCell><mxCell id="uc_login" value="Log In" style="ellipse;whiteSpace=wrap;html=1;" vertex="1" parent="sys1"><mxGeometry x="460" y="220" width="220" height="80" as="geometry" /></mxCell><mxCell id="uc_register" value="Register Account" style="ellipse;whiteSpace=wrap;html=1;" vertex="1" parent="sys1"><mxGeometry x="820" y="220" width="220" height="80" as="geometry" /></mxCell><mxCell id="uc_verify" value="Verify Email" style="ellipse;whiteSpace=wrap;html=1;" vertex="1" parent="sys1"><mxGeometry x="820" y="360" width="220" height="80" as="geometry" /></mxCell><mxCell id="uc_reset" value="Reset Password" style="ellipse;whiteSpace=wrap;html=1;" vertex="1" parent="sys1"><mxGeometry x="460" y="360" width="220" height="80" as="geometry" /></mxCell><mxCell id="uc_refresh" value="Refresh Token" style="ellipse;whiteSpace=wrap;html=1;" vertex="1" parent="sys1"><mxGeometry x="460" y="500" width="240" height="80" as="geometry" /></mxCell><mxCell id="uc_sso" value="Login with SSO" style="ellipse;whiteSpace=wrap;html=1;" vertex="1" parent="sys1"><mxGeometry x="1160" y="220" width="220" height="80" as="geometry" /></mxCell><mxCell id="e1" value="" style="endArrow=classic;" edge="1" parent="1" source="a_student1" target="uc_login"><mxGeometry relative="1" as="geometry" /></mxCell><mxCell id="e2" value="" style="endArrow=classic;" edge="1" parent="1" source="a_student1" target="uc_register"><mxGeometry relative="1" as="geometry" /></mxCell><mxCell id="e3" value="" style="endArrow=classic;" edge="1" parent="1" source="a_student1" target="uc_reset"><mxGeometry relative="1" as="geometry" /></mxCell><mxCell id="e4" value="" style="endArrow=classic;" edge="1" parent="1" source="a_student1" target="uc_sso"><mxGeometry relative="1" as="geometry" /></mxCell><mxCell id="e5" value="" style="endArrow=block;dashed=1;" edge="1" parent="1" source="uc_register" target="uc_verify"><mxGeometry relative="1" as="geometry" /></mxCell><mxCell id="e6" value="" style="endArrow=block;dashed=1;" edge="1" parent="1" source="uc_login" target="uc_refresh"><mxGeometry relative="1" as="geometry" /></mxCell><mxCell id="e7" value="" style="endArrow=classic;" edge="1" parent="1" source="a_email1" target="uc_verify"><mxGeometry relative="1" as="geometry" /></mxCell><mxCell id="e8" value="" style="endArrow=classic;" edge="1" parent="1" source="a_sso1" target="uc_sso"><mxGeometry relative="1" as="geometry" /></mxCell></root></mxGraphModel></diagram></mxfile>